<?xml version="1.0" encoding="UTF-8"?><svg id="Layer_1" xmlns="http://www.w3.org/2000/svg" viewBox="0 0 698.96 396.8"><defs><style>.cls-1{fill:#fff;}.cls-2{fill:#fcd20b;}.cls-3{fill:#765241;}.cls-4{fill:#ed1c24;}.cls-5{fill:#231f20;}</style></defs><path class="cls-5" d="M624.82,121.04c-13.93,13.31-36.15,30.52-50.08,39.29-15.87,9.99-37.64,23.06-60.24,35.3-3.14,1.7-4.32,5.65-2.55,8.75,8.86,15.5,12.3,33.89,15.74,50.31,1.71,8.15,2.85,16.41,3.43,24.71,0,0,2.45,38.59,4.57,71.92,3.57,3.69,8.71,5.64,15.52,.28,14.92-11.75,19.02-3.92,19.02-3.92,0,0,2.05,1.12,3.73-1.12,1.68-2.24,7.09-3.54,10.63,1.12,3.54,4.66,11.93,.19,11.93,.19,0,0,4.1-.56,6.9,7.46,1.5,4.3,6.48,6.77,10.77,8.14,4.64,1.48,7.91,5.64,8.39,10.48,.11,1.11,.21,2.22,.29,3.34,.35,4.76,.64,10.09-1.15,14.62-.75,1.89-1.92,3.38-3.76,4.29-.96,.47-1.83,.43-2.89,.44-1.12,.02-2.25,.03-3.37,.04-7.67,.09-15.34,.03-23,.03H98.96c-4.83,0-9.62-.01-14.44,.08-2.67,.05-5.77-.17-7.56-2.39-1.34-1.66-1.96-3.81-2.33-5.88-.84-4.79-.43-9.77,.05-14.58,.48-4.84,3.76-9,8.39-10.48,4.3-1.37,9.28-3.85,10.77-8.14,2.8-8.02,6.9-7.46,6.9-7.46,0,0,8.39,4.48,11.93-.19,3.54-4.66,8.95-3.36,10.63-1.12,1.68,2.24,3.73,1.12,3.73,1.12,0,0,4.1-7.83,19.02,3.92,5.19,4.09,9.41,3.93,12.7,1.98,6.69-21.86,7.91-72.63,8.92-82.3,2.34-22.24,8.89-47.5,18.56-66.43l.04-.07c1.81-3.53,.53-7.86-2.95-9.75-22.19-12.07-43.5-24.86-59.11-34.69-13.93-8.77-36.15-25.98-50.08-39.29C45.16,93.33-11.1,13.93,1.92,.09,1.92,.09,124.08-8.35,242.55,137.12c5.64,6.92,15.35,9.01,23.36,5.05,2.81-1.39,5.66-2.71,8.54-3.95,19.52-8.42,40.47-13.39,61.67-14.81,24.27-1.62,48.84,1.34,71.96,8.94,8.44,2.77,16.67,6.16,24.62,10.13,8.03,4.01,17.79,1.94,23.45-5.02C574.69-8.36,697.04,.09,697.04,.09c13.02,13.84-43.23,93.24-72.22,120.94Z"/><path class="cls-2" d="M94.97,364.27c2.01-13.29,6.96-9.22,9.99-5.12,1.24,1.67,3.8,1.56,4.9-.22,7.79-12.66,10.67-6.21,11.5-3.2,.22,.8,.83,1.43,1.62,1.68h0c.97,.3,2.04-.04,2.66-.84,10.95-14.15,12.69-3.74,12.86,2.62,.04,1.51,1.75,2.33,3,1.47,12.13-8.33,9.23,13.86,9.23,13.86,6.1,1.1,9.73,7.79,11.5,12.28,.79,1.99-.69,4.13-2.83,4.13H83.23c-10.63-21.63,11.75-26.67,11.75-26.67Zm506.36,0c-2.01-13.29-6.96-9.22-9.99-5.12-1.24,1.67-3.8,1.56-4.9-.22-7.79-12.66-10.67-6.21-11.5-3.2-.22,.8-.83,1.43-1.62,1.68h0c-.97,.3-2.04-.04-2.66-.84-10.95-14.15-12.69-3.74-12.86,2.62-.04,1.51-1.75,2.33-3,1.47-12.13-8.33-9.23,13.86-9.23,13.86-6.1,1.1-9.73,7.79-11.5,12.28-.79,1.99,.69,4.13,2.83,4.13h76.18c10.63-21.63-11.75-26.67-11.75-26.67ZM639.55,25.01c-4.09,27.84-13.32,85.99-37.29,106.15-14.27,12-32.73,23.93-46.21,32.42-7.52,4.74-14.55,10.21-22.03,15.02-4.03,2.6-8.18,5.02-12.5,7.11-2.97,1.43-8.95,5.15-12.33,4.26-1.3-.34-2.41-1.17-3.5-1.95-1.09-.78-2.25-1.56-3.58-1.77-2.33-.37-3.18,1-3.68,2.93-.63,2.43-.22,5.01,1.01,7.2,13.65,24.35,22.67,51.99,25.02,79.79,.92,10.87-.37,21.75,.22,32.51,.59,10.27,1.55,20.61,3.94,30.64,.62,2.6,1.31,5.2,2.13,7.75,.42,1.32,2.22,7.26-.6,8.01-.46,.12-.95,0-1.41-.13-13.13-3.54-24.75-7.34-37.89-1.37-8.86,4.02-13.23,10.62-18.33,18.73-1.93,3.07-3.62,6.28-5.06,9.6-.72,1.66-1.35,3.36-1.96,5.06-.14,.39-.76,4.51-.76,4.51,0,0-26.29-.05-31.74-.1-10.79-.08-21.58-.09-32.36-.14-5.89-.02-11.78-.05-17.68-.08l.77-7.23c.22,0,.44,.03,.67,.03,7.96,0,16.88-2.99,25.17-12.44,.82-.93,.72-2.34-.21-3.16-.93-.81-2.34-.72-3.16,.21-18.94,21.6-41.12,5-43.36,3.23-1.66-1.91-13.31-13.65-37.19,3.52-6.42,4.61-12.86,6.39-19.13,5.27-11.12-1.98-18.29-12.43-18.36-12.53-.69-1.02-2.08-1.29-3.1-.61-1.03,.69-1.3,2.08-.61,3.11,.33,.49,8.25,12.09,21.25,14.43,1.51,.27,3.02,.41,4.53,.41,.76,0,1.53-.04,2.3-.11l.18,5.55c-6.92-.04-13.85-.06-20.77-.18-14.67-.25-29.33-.5-44-.74-5.6-.09-11.25-.29-16.83-.27,.3-11.53-7.77-23.89-16.31-30.95-10.35-8.55-25.51-9.46-38.08-6.39-2.85,.7-10.81,5.43-12.98,1.97-1.49-2.38,3.26-6.94,3.97-9.12,4.47-14.23,5.29-30.07,6.78-44.82,2-19.71,1.25-39.27,4.74-58.82,1.49-8.34,3.77-16.56,7.15-24.34,1.7-3.92,3.69-7.72,5.97-11.33,1.89-2.98,4.27-5.62,6.12-8.65,1.35-2.22,5.57-11.01,.22-11.25-4.23-.19-5.15,3.51-12.36,2.59-8.82-1.13-17.48-6.68-24.75-11.45-7.17-4.71-13.93-10.05-21.19-14.62-13.48-8.48-36.51-22.47-49.57-35.77-21.02-21.42-35.56-96.94-31.82-108.04,0,0,69.54-1.77,180.17,129.18,5.62,6.65,15.05,8.62,22.85,4.77,2.64-1.3,5.31-2.53,8.01-3.7,18.88-8.14,49.21-14.07,69.72-15.45,23.48-1.57,47.25,1.3,69.61,8.65,8.16,2.68,20.61,8.2,28.29,12.03,7.77,3.87,18.37-2.57,23.8-9.33,78.25-97.45,145.57-121.47,170.63-126.82,4.81-1.03,8.17,2.16,7.45,7.02ZM279.58,297.98c0-19.31-15.65-34.96-34.96-34.96s-34.96,15.65-34.96,34.96,15.65,34.96,34.96,34.96,34.96-15.65,34.96-34.96Zm76.21,20.47h-16.37c-3.97,0-6.39,4.37-4.29,7.74l3.82,6.13c4.31,5.8,12.99,5.8,17.3,0l3.83-6.13c2.1-3.37-.32-7.74-4.29-7.74Zm131.34-20.47c0-19.31-15.65-34.96-34.96-34.96s-34.96,15.65-34.96,34.96,15.65,34.96,34.96,34.96,34.96-15.65,34.96-34.96Z"/><path class="cls-4" d="M171.05,390.93s-12.12-9.7-10.82-23.31c0,0,47.46-32.92,63.49,23.39l-52.68-.08Zm353.36,0s12.12-9.7,10.82-23.31c0,0-47.46-32.92-63.49,23.39l52.68-.08Zm-145.44,.93l.23-4.86c.08-1.75-1.11-3.3-2.82-3.66-3.99-.84-11.01-2.94-14.74-7.7-5.41-6.9-20.33-7.83-27.97,.37-4.71,5.05-10.13,6.71-13.59,7.24-2.06,.31-3.56,2.1-3.56,4.19v4.24l62.47,.19Z"/><path class="cls-1" d="M269.14,286.51c0,8.86-7.18,16.04-16.04,16.04s-16.04-7.18-16.04-16.04,7.18-16.04,16.04-16.04,16.04,7.18,16.04,16.04Zm173.42-16.04c-8.86,0-16.04,7.18-16.04,16.04s7.18,16.04,16.04,16.04,16.04-7.18,16.04-16.04-7.18-16.04-16.04-16.04Z"/><path class="cls-3" d="M267.02,305.99c.03,.44,.07,.87,.07,1.31,0,11.38-9.23,20.6-20.6,20.6-10.47,0-19.1-7.82-20.41-17.93,5.45,1.5,12.09,2.16,19.21,1.68,8.53-.58,16.17-2.69,21.74-5.66Zm161.62,0c-.03,.44-.07,.87-.07,1.31,0,11.38,9.22,20.6,20.6,20.6,10.47,0,19.1-7.82,20.41-17.93-5.45,1.5-12.09,2.16-19.21,1.68-8.53-.58-16.17-2.69-21.74-5.66Z"/></svg>