<svg id="Capa_1" xmlns="http://www.w3.org/2000/svg" viewBox="0 0 168.84 171.1"><defs><style>.cls-1{fill:#fff;}.cls-2{fill:#d6d6d6;}.cls-3{fill:none;}.cls-4{fill:#e63946;}</style></defs><line class="cls-3" x1=".1" y1="111.39" x2="50.81" y2="91.26"/><line class="cls-3" x1=".1" y1="111.39" x2="51.19" y2="91.26"/><path class="cls-4" d="M.35,109.16c-.12-29.08-.24-58.15-.35-87.23C7.51,14.7,15.02,7.47,22.53,.24c41.44-.08,82.89-.16,124.33-.24,7.11,7.18,14.22,14.36,21.33,21.54l.51,31.64C112.59,71.84,56.47,90.5,.35,109.16Z"/><path class="cls-1" d="M168.48,61.94c.12,29.08,.24,58.15,.35,87.23-7.5,7.23-14.99,14.46-22.49,21.69-41.38,.08-82.76,.16-124.14,.24-7.1-7.18-14.2-14.36-21.3-21.54l-.51-31.64c56.03-18.66,112.06-37.32,168.1-55.99Z"/><path d="M57.67,102.89c-19.1,6.45-38.19,12.89-57.29,19.34l.13-4v-3.23c0-4.08,0-6.45,0-6.45H.52s50.69-17.75,52.7-18.46l4.45,12.8Z"/><ellipse cx="84.02" cy="85.05" rx="37.5" ry="36"/><circle class="cls-1" cx="85.02" cy="86.55" r="28.5"/><ellipse class="cls-2" cx="85.02" cy="86.05" rx="24.5" ry="24"/><path d="M111.75,68.94c19.01-6.69,38.02-13.39,57.03-20.08l-.08,4,.04,3.23c.05,4.08,.08,6.45,.08,6.45h0s-50.46,18.41-52.46,19.14l-4.62-12.74Z"/></svg>